<svg width="72" height="72" viewBox="0 0 72 72" fill="none" xmlns="http://www.w3.org/2000/svg">
  <circle cx="36" cy="36" r="35" fill="#FFF7ED" stroke="#1F2937" stroke-width="2" />
  <path
    d="M34.7026 15.3291C34.3773 15.3479 34.1216 15.4839 33.7849 15.8129L33.3221 16.2746L32.8266 15.5166C32.4036 14.8549 32.2799 14.7407 31.828 14.6663C30.8729 14.4996 30.3747 15.365 30.6214 16.7439C30.7583 17.4514 31.3787 18.9259 32.0829 20.1112L32.5151 20.8602L32.8519 20.6066C33.2609 20.2986 34.6069 18.6815 35.1684 17.825C35.9881 16.5855 35.7445 15.2608 34.7026 15.3291ZM34.2196 17.7667C33.8412 18.3156 33.3034 19.0034 33.0179 19.275C32.5189 19.7639 32.4948 19.7821 32.2683 19.4813C31.915 19.0122 31.306 17.2274 31.2474 16.4987C31.2005 15.6856 31.4497 15.2905 31.9919 15.3346C32.492 15.3727 32.5615 15.4901 32.717 16.4475C32.7842 16.8871 32.9236 17.3476 33.0324 17.492C33.1864 17.6965 33.2526 17.6843 33.496 17.4067C33.6493 17.2347 34.064 16.8092 34.4338 16.4742L35.1103 15.8705L35.0148 16.3194C34.9701 16.5604 34.61 17.2087 34.2196 17.7667Z"
    fill="black"
  />
  <path
    d="M29.4885 21.6772C29.2106 21.8433 28.9312 22.1897 28.7835 22.6214C28.5557 23.287 28.5254 23.3168 28.1368 23.0431C27.4012 22.5502 26.6808 22.4242 26.1912 22.7389C24.8377 23.5818 25.7568 25.1825 28.7232 27.1422C29.4947 27.6474 30.2369 28.0622 30.3813 28.0513C30.7482 28.0362 31.6475 25.3499 31.6998 24.0818C31.7738 22.3388 30.5996 21.0728 29.4885 21.6772ZM30.5546 24.4333C30.4825 25.1722 30.3068 26.0967 30.1652 26.5104C29.9251 27.212 29.9009 27.2238 29.4702 26.9558C28.4771 26.3346 27.3312 25.2793 26.9872 24.6993C26.2039 23.4064 26.9738 22.625 27.8844 23.7806C28.7174 24.8695 28.9204 25.0395 29.203 25.0357C29.3654 25.031 29.4927 24.8938 29.4824 24.6893C29.463 24.0999 29.8296 22.6178 30.0725 22.3191C30.3031 22.0564 30.3329 22.0867 30.5094 22.5691C30.6154 22.8466 30.6446 23.7005 30.5546 24.4333Z"
    fill="black"
  />
  <path
    d="M50.3657 25.4714C48.5848 25.8332 46.4143 27.141 45.5238 28.3654C45.1064 28.9498 44.4664 30.1741 44.1603 31.0646L43.5759 32.7064L42.3237 31.6211C39.7915 29.3672 36.981 28.755 34.5601 29.9515C31.6104 31.3707 30.9148 35.7395 32.974 39.9413C33.9479 41.9449 37.621 45.618 40.1533 47.1206C43.3812 49.0128 45.663 49.7642 48.223 49.792C50.1987 49.792 50.6161 49.7085 51.9518 48.985C52.7866 48.512 54.1779 47.4545 55.0406 46.5919C61.2181 40.4979 62.7207 31.4263 58.185 27.4193C56.2928 25.7775 53.0092 24.9427 50.3657 25.4714ZM55.5414 26.8349C57.8232 28.0037 58.992 29.9794 59.1589 32.9846C59.4094 37.4369 57.4337 42.2509 53.9275 45.8406C51.6735 48.1224 50.0039 49.0963 48.3343 49.1242C44.049 49.152 36.6471 44.0319 34.4488 39.5518C32.974 36.6021 32.9461 33.2629 34.3653 31.5655C36.174 29.4228 38.2054 29.5898 40.9046 32.0942C41.795 32.929 42.7411 33.9586 42.9916 34.4038C43.9933 36.1012 44.9116 35.7395 45.1064 33.569C45.4125 29.9237 47.6386 27.0854 50.7274 26.2784C51.9518 25.9445 54.3727 26.2506 55.5414 26.8349Z"
    fill="black"
  />
  <path
    d="M48.154 36.8685C47.8296 36.965 47.6983 37.2618 47.7533 37.7036C47.877 38.6977 48.6675 38.5152 48.6542 37.5073C48.658 36.8619 48.5579 36.7341 48.154 36.8685Z"
    fill="black"
  />
  <path
    d="M43.7314 37.4991C43.4123 37.6122 43.2965 37.9153 43.3742 38.3537C43.549 39.3401 44.329 39.1171 44.2638 38.1113C44.2343 37.4665 44.1278 37.3441 43.7314 37.4991Z"
    fill="black"
  />
  <path
    d="M49.7176 40.0973C49.6141 39.9723 49.145 40.1314 48.7082 40.4495C47.7282 41.1366 46.0968 41.3285 44.8896 40.9028C43.8661 40.5419 43.4849 40.7025 43.499 41.4156C43.5146 42.0408 45.4998 42.7703 46.7176 42.5801C48.4556 42.3373 50.2858 40.8288 49.7176 40.0973Z"
    fill="black"
  />
  <path
    d="M16.6341 35.0991C18.2982 34.3688 20.8258 34.1873 22.259 34.6751C22.9368 34.9122 24.1653 35.5443 24.9285 36.0958L26.352 37.101L26.7503 35.4926C27.5215 32.1914 29.466 30.0719 32.1342 29.6551C35.3627 29.1158 38.4483 32.2859 39.1859 36.9067C39.5441 39.1054 38.658 44.2238 37.4539 46.9109C35.9057 50.3172 34.4734 52.2459 32.397 53.7435C30.7821 54.8818 30.3928 55.054 28.8843 55.2321C27.9294 55.3264 26.183 55.2637 24.9809 55.0556C16.4207 53.6335 9.96624 47.0844 11.3651 41.1961C11.9659 38.764 14.1688 36.1899 16.6341 35.0991ZM13.1892 39.1954C11.9974 41.4653 12.1804 43.7535 13.7753 46.3061C16.1356 50.0895 20.524 52.8861 25.4578 53.8002C28.6147 54.3667 30.5405 54.2009 31.9212 53.2618C35.4399 50.8157 38.5402 42.3663 37.756 37.4379C37.2621 34.1773 35.3611 31.4319 33.2232 30.8621C30.5104 30.1528 28.9462 31.4596 28.1828 35.0616C27.9359 36.257 27.7558 37.6436 27.8076 38.1518C27.9667 40.1164 27.0077 40.3497 25.598 38.6879C23.2477 35.8847 19.7929 34.8472 16.8034 35.9671C15.6102 36.3996 13.8078 38.0445 13.1892 39.1954Z"
    fill="black"
  />
  <path
    d="M25.0098 43.1404C25.3306 43.0323 25.6089 43.1992 25.8185 43.592C26.29 44.4759 25.5387 44.7821 24.969 43.9506C24.5941 43.4252 24.6022 43.2632 25.0098 43.1404Z"
    fill="black"
  />
  <path
    d="M28.9855 41.1088C29.3115 41.0173 29.5808 41.1984 29.7699 41.6015C30.1952 42.5084 29.4292 42.7755 28.903 41.9158C28.5557 41.3718 28.5722 41.2104 28.9855 41.1088Z"
    fill="black"
  />
  <path
    d="M25.592 46.6805C25.6045 46.5187 26.0797 46.3784 26.6199 46.3868C27.8168 46.3839 29.2608 45.6008 30.0023 44.5574C30.6309 43.6727 31.0351 43.5844 31.4344 44.1754C31.7818 44.6954 30.5794 46.4354 29.4745 46.9815C27.914 47.7843 25.5489 47.6057 25.592 46.6805Z"
    fill="black"
  />
</svg>
