<svg width="40" height="40" viewBox="0 0 40 40" fill="none" xmlns="http://www.w3.org/2000/svg">
<g clip-path="url(#clip0_2969_45731)">
<circle cx="20" cy="20" r="19.5" fill="#F9FAFB" stroke="#9CA3AF"/>
<circle cx="20" cy="20" r="19" stroke="#E5E7EB" stroke-width="2"/>
<path fill-rule="evenodd" clip-rule="evenodd" d="M31.4616 24.9949C29.5339 29.4124 25.1273 32.5 19.9995 32.5C14.5563 32.5 9.92575 29.0209 8.21022 24.1651C5.96567 24.1003 4.16602 22.2604 4.16602 20.0002C4.16602 17.74 5.96561 15.9001 8.2101 15.8353C9.92554 10.9793 14.5562 7.5 19.9995 7.5C25.7552 7.5 30.6022 11.39 32.055 16.6844C34.1739 16.8805 35.8328 18.6631 35.8328 20.8332C35.8328 23.1344 33.9674 24.9998 31.6662 24.9998C31.5976 24.9998 31.5294 24.9982 31.4616 24.9949Z" fill="#E5E7EB"/>
<path fill-rule="evenodd" clip-rule="evenodd" d="M18.8332 18.0012C18.4395 17.2107 17.5849 16.6665 16.577 16.6665C16.1356 16.6665 15.4535 16.9619 15.1727 17.4418C15.1326 17.5526 14.9721 17.5526 14.932 17.4418C14.611 16.9988 13.969 16.7034 13.4876 16.7034C12.1635 16.7034 11.0401 17.7002 11 18.9186V18.9924C11 19.62 11.2809 20.2107 11.7623 20.6538V20.6907C11.8024 20.7276 13.7283 22.2782 14.611 22.9797C14.8517 23.1643 15.2128 23.1643 15.4535 22.9797C15.8243 22.685 16.372 22.2406 16.8885 21.8215L16.8887 21.8213C17.6019 21.2426 18.2557 20.7121 18.3022 20.6907V20.6538C18.728 20.2946 18.9968 19.7912 19.0534 19.2199C19.3312 19.1858 19.6455 19.1666 20.0001 19.1666C20.5391 19.1666 20.9847 19.211 21.3513 19.2846C21.3507 19.2968 21.3502 19.3091 21.3498 19.3215V19.3953C21.3498 20.0229 21.6306 20.6136 22.1121 21.0567V21.0936C22.1522 21.1305 24.0781 22.6811 24.9608 23.3826C25.2015 23.5672 25.5626 23.5672 25.8033 23.3826C26.1741 23.0879 26.7219 22.6434 27.2385 22.2242C27.9517 21.6455 28.6055 21.115 28.652 21.0936V21.0567C29.1335 20.6505 29.4143 20.0598 29.4143 19.3953V19.3215C29.3742 18.0662 28.2909 17.0694 26.9267 17.0694C26.4854 17.0694 25.8033 17.3647 25.5225 17.8447C25.4824 17.9555 25.3219 17.9555 25.2817 17.8447C24.9608 17.4017 24.3188 17.1063 23.8374 17.1063C22.9849 17.1063 22.2155 17.5195 21.765 18.1391C21.3358 18.0052 20.761 17.9166 20.0001 17.9166C19.5484 17.9166 19.1623 17.9478 18.8332 18.0012Z" fill="#6B7280"/>
<path d="M17.917 23.75C18.0559 24.0278 18.667 24.5833 20.0003 24.5833C21.3337 24.5833 21.9448 24.0278 22.0837 23.75" stroke="#6B7280" stroke-width="1.25" stroke-linecap="round" stroke-linejoin="round"/>
<path d="M17.9937 9.29681C17.5565 9.63936 16.8691 11.0196 17.2478 11.9906C17.6265 12.9616 18.2187 13.2021 18.5194 13.2795" stroke="#6B7280" stroke-width="0.993658" stroke-linecap="round"/>
<path d="M20.6495 9.98087C20.2117 10.2793 19.8973 11.5632 20.3165 12.4602C20.6285 13.1278 21.4265 13.3869 21.6806 13.4522" stroke="#6B7280" stroke-width="0.993658" stroke-linecap="round"/>
<path d="M22.8584 10.4372C22.6488 10.7121 22.8025 11.5046 23.1627 12.041C23.3756 12.3581 24.0204 12.8212 24.1912 12.8094" stroke="#6B7280" stroke-width="0.991667" stroke-linecap="round"/>
</g>
<defs>
<clipPath id="clip0_2969_45731">
<rect width="40" height="40" fill="white"/>
</clipPath>
</defs>
</svg>
